<svg height="512" viewBox="0 0 128 128" width="512" xmlns="http://www.w3.org/2000/svg"><g><g><path d="m14 17h100a8 8 0 0 1 8 8v77a9 9 0 0 1 -9 9h-98a9 9 0 0 1 -9-9v-77a8 8 0 0 1 8-8z" fill="#e1f7ff"/><path d="m114 17h-100a8 8 0 0 0 -8 8v13.433h116v-13.433a8 8 0 0 0 -8-8z" fill="#0081d0"/><circle cx="21.57" cy="27.717" fill="#f37249" r="4"/><circle cx="37.626" cy="27.717" fill="#ffcc5b" r="4"/><path d="m122 25a8 8 0 0 0 -8-8h-53.738l-10.138 21.433h71.876z" fill="#a4def7"/><path d="m112.267 29.466h-44.745a1.75 1.75 0 0 1 0-3.5h44.745a1.75 1.75 0 0 1 0 3.5z" fill="#59b7e8"/></g><g fill="#59b7e8"><path d="m64 92.141a1.75 1.75 0 0 1 -1.75-1.75v-10.908a1.75 1.75 0 0 1 3.5 0v10.908a1.75 1.75 0 0 1 -1.75 1.75z"/><path d="m59.5 96.641h-19.939a1.75 1.75 0 1 1 0-3.5h19.939a1.75 1.75 0 1 1 0 3.5z"/><path d="m88.438 96.641h-19.938a1.75 1.75 0 0 1 0-3.5h19.938a1.75 1.75 0 0 1 0 3.5z"/><rect height="14.578" rx="2.674" width="43" x="42.5" y="50.327"/></g><path d="m50.856 60.408a2.792 2.792 0 1 1 2.791-2.792 2.8 2.8 0 0 1 -2.791 2.792z" fill="#f37249"/><path d="m59.8 60.408a2.792 2.792 0 1 1 2.791-2.792 2.8 2.8 0 0 1 -2.791 2.792z" fill="#f37249"/><path d="m45.175 64.905h37.651a2.674 2.674 0 0 1 2.674 2.675v9.229a2.674 2.674 0 0 1 -2.674 2.674h-37.652a2.674 2.674 0 0 1 -2.674-2.674v-9.229a2.675 2.675 0 0 1 2.675-2.675z" fill="#a4def7"/><path d="m50.856 74.986a2.792 2.792 0 1 1 2.791-2.792 2.8 2.8 0 0 1 -2.791 2.792z" fill="#f37249"/><path d="m59.8 74.986a2.792 2.792 0 1 1 2.791-2.792 2.8 2.8 0 0 1 -2.791 2.792z" fill="#f37249"/><circle cx="64" cy="94.891" fill="#0081d0" r="4.5"/><circle cx="36.061" cy="94.891" fill="#0081d0" r="3.5"/><circle cx="91.939" cy="94.891" fill="#0081d0" r="3.5"/></g></svg>